<?xml version="1.0" encoding="UTF-8"?>
<svg width="225px" height="64px" viewBox="0 0 225 64" version="1.1" xmlns="http://www.w3.org/2000/svg" xmlns:xlink="http://www.w3.org/1999/xlink">
    <!-- Generator: Sketch 52.2 (67145) - http://www.bohemiancoding.com/sketch -->
    <title>Smart Parking</title>
    <desc>Created with Sketch.</desc>
    <defs>
        <linearGradient x1="0%" y1="0%" x2="50%" y2="50%" id="linearGradient-1">
            <stop stop-color="#FCCBAC" offset="0%"></stop>
            <stop stop-color="#FF5811" offset="100%"></stop>
        </linearGradient>
    </defs>
    <g id="Symbols" stroke="none" stroke-width="1" fill="none" fill-rule="evenodd">
        <g id="Logos/Smart-Parking">
            <g id="Smart-Parking">
                <path d="M73.9803774,38.6813585 L83.9003774,38.6813585 C89.6929811,38.6813585 93.1960755,42.1156226 93.1960755,47.0738113 L93.1960755,47.1438491 C93.1960755,52.7637736 88.8247547,55.6787925 83.378717,55.6787925 L79.3213585,55.6787925 L79.3213585,62.962717 L73.9803774,62.962717 L73.9803774,38.6813585 Z M83.5526038,50.9258868 C86.2236981,50.9258868 87.7850566,49.3283019 87.7850566,47.2489057 L87.7850566,47.1788679 C87.7850566,44.7879245 86.1186415,43.5030943 83.4499623,43.5030943 L79.3201509,43.5030943 L79.3201509,50.9258868 L83.5526038,50.9258868 Z M100.075472,38.5086792 L105.002264,38.5086792 L115.407698,62.9615094 L109.822792,62.9615094 L107.603321,57.5154717 L97.3331321,57.5154717 L95.1136604,62.9615094 L89.6676226,62.9615094 L100.074264,38.5086792 L100.075472,38.5086792 Z M105.694189,52.7975849 L102.470038,44.9243774 L99.2434717,52.7975849 L105.694189,52.7975849 Z M117.237132,38.6813585 L128.334491,38.6813585 C131.423396,38.6813585 133.816755,39.5483774 135.410717,41.1447547 C136.76317,42.4972075 137.493736,44.4051321 137.493736,46.693434 L137.493736,46.7634717 C137.493736,50.6831698 135.376906,53.1453585 132.289208,54.2889057 L138.220679,62.9615094 L131.97766,62.9615094 L126.773132,55.1909434 L122.576906,55.1909434 L122.576906,62.9615094 L117.234717,62.9615094 L117.234717,38.6813585 L117.237132,38.6813585 Z M127.989132,50.4742642 C130.592604,50.4742642 132.082717,49.0855849 132.082717,47.0387925 L132.082717,46.9699623 C132.082717,44.6804528 130.488755,43.5018868 127.886491,43.5018868 L122.579321,43.5018868 L122.579321,50.4754717 L127.989132,50.4754717 L127.989132,50.4742642 Z M140.399094,38.6813585 L145.738868,38.6813585 L145.738868,49.2956981 L155.590038,38.6813585 L162.040755,38.6813585 L152.158189,48.9817358 L162.49117,62.9615094 L156.076679,62.9615094 L148.551245,52.6249057 L145.740075,55.538717 L145.740075,62.9615094 L140.400302,62.9615094 L140.399094,38.6813585 Z M165.098264,38.6813585 L170.440453,38.6813585 L170.440453,62.9615094 L165.098264,62.9615094 L165.098264,38.6813585 Z M174.590792,38.6813585 L179.517585,38.6813585 L190.892679,53.6307925 L190.892679,38.6813585 L196.16483,38.6813585 L196.16483,62.9615094 L191.619623,62.9615094 L179.861736,47.5266415 L179.861736,62.9615094 L174.588377,62.9615094 L174.590792,38.6813585 Z M199.000151,50.8908679 L199.000151,50.8184151 C199.000151,43.917283 204.376151,38.2635472 211.731321,38.2635472 C216.102642,38.2635472 218.735094,39.4433208 221.270943,41.5939623 L217.904302,45.6513208 C216.032604,44.0911698 214.366189,43.1879245 211.557434,43.1879245 C207.669132,43.1879245 204.585057,46.6246038 204.585057,50.7507925 L204.585057,50.8196226 C204.585057,55.2597736 207.635321,58.5201509 211.939019,58.5201509 C213.87834,58.5201509 215.614792,58.0371321 216.967245,57.0638491 L216.967245,53.594566 L211.59366,53.594566 L211.59366,48.9817358 L222.135547,48.9817358 L222.135547,59.5272453 C219.63834,61.6404528 216.204075,63.3756981 211.765132,63.3756981 C204.203472,63.3756981 199.001358,58.0709434 199.001358,50.8896604 L199.000151,50.8908679 Z" id="Parking" fill="#AFB1B4" fill-rule="nonzero"></path>
                <path d="M100.628528,0.933433962 L108.272302,0.933433962 L116.737208,14.5581887 L125.210566,0.933433962 L132.851925,0.933433962 L132.851925,33.1532075 L125.808302,33.1532075 L125.808302,12.1177358 L116.739623,25.8813585 L116.556075,25.8813585 L107.580377,12.2566038 L107.580377,33.1532075 L100.628528,33.1532075 L100.628528,0.933433962 Z M147.436679,0.702792453 L153.973132,0.702792453 L167.781434,33.1544151 L160.370717,33.1544151 L157.424302,25.9284528 L143.799547,25.9284528 L140.853132,33.1544151 L133.625962,33.1544151 L147.436679,0.702792453 Z M154.893283,19.6661132 L150.613736,9.21841509 L146.332981,19.6661132 L154.894491,19.6661132 L154.893283,19.6661132 Z M168.557887,0.933433962 L183.289962,0.933433962 C187.383547,0.933433962 190.559396,2.08301887 192.676226,4.2010566 C194.471849,5.9954717 195.439094,8.52769811 195.439094,11.5670943 L195.439094,11.6576604 C195.439094,16.858566 192.631547,20.1261887 188.53434,21.6464906 L196.405132,33.1544151 L188.121358,33.1544151 L181.216604,22.8419623 L175.647396,22.8419623 L175.647396,33.1544151 L168.559094,33.1544151 L168.559094,0.932226415 L168.557887,0.933433962 Z M182.827472,16.5832453 C186.278642,16.5832453 188.259019,14.7429434 188.259019,12.0259623 L188.259019,11.9329811 C188.259019,8.89479245 186.140981,7.32981132 182.689811,7.32981132 L175.647396,7.32981132 L175.647396,16.5832453 L182.827472,16.5832453 Z M207.174038,7.46867925 L197.368755,7.46867925 L197.368755,0.932226415 L224.067623,0.932226415 L224.067623,7.46867925 L214.26234,7.46867925 L214.26234,33.1532075 L207.174038,33.1532075 L207.174038,7.46867925 Z M72.1388679,28.4594717 L76.3290566,23.4421132 C79.2271698,25.8354717 82.2677736,27.354566 85.9495849,27.354566 C88.8501132,27.354566 90.5986415,26.2037736 90.5986415,24.3163774 L90.5986415,24.2233962 C90.5986415,22.4289811 89.4937358,21.5088302 84.1080755,20.1273962 C77.6175094,18.4706415 73.4297358,16.6738113 73.4297358,10.2762264 L73.4297358,10.1844528 C73.4297358,4.33992453 78.1234717,0.472150943 84.7046038,0.472150943 C89.4019623,0.472150943 93.4061887,1.94535849 96.6738113,4.57056604 L92.9907925,9.90792453 C90.1373585,7.93116981 87.3273962,6.73207547 84.6128302,6.73207547 C81.8958491,6.73207547 80.4709434,7.97584906 80.4709434,9.54203774 L80.4709434,9.63622642 C80.4709434,11.7530566 81.8511698,12.442566 87.4203774,13.8698868 C93.9568302,15.5725283 97.6398491,17.92 97.6398491,23.5375094 L97.6398491,23.6280755 C97.6398491,30.0280755 92.7613585,33.6181132 85.8095094,33.6181132 C80.9310189,33.6181132 76.0042264,31.9154717 72.1376604,28.4618868 L72.1388679,28.4594717 Z" id="Smart" fill="#FF5811" fill-rule="nonzero"></path>
                <g id="P-Graphic">
                    <path d="M62.5509434,57.0988679 C62.5509434,60.3411321 59.9233208,62.9675472 56.6822642,62.9675472 L5.98943396,62.9675472 C2.74596226,62.9675472 0.118339623,60.3411321 0.118339623,57.0988679 L0.118339623,6.40603774 C0.118339623,3.16498113 2.74596226,0.537358491 5.98701887,0.537358491 L56.6798491,0.537358491 C59.9233208,0.537358491 62.5509434,3.16498113 62.5509434,6.40603774 L62.5509434,57.0988679 Z" id="Shape" fill="#FF5811" fill-rule="nonzero"></path>
                    <path d="M15.1861132,10.9971321 L33.0698868,10.9971321 C43.5091321,10.9971321 49.8233962,17.1870189 49.8233962,26.1276981 L49.8233962,26.253283 C49.8233962,36.3809811 41.946566,41.6338113 32.1292075,41.6338113 L24.8150943,41.6338113 L24.8150943,54.7622642 L15.1861132,54.7622642 L15.1861132,10.9983396 L15.1861132,10.9971321 Z M32.4419623,33.0686792 C37.2576604,33.0686792 40.0700377,30.1910943 40.0700377,26.4392453 L40.0700377,26.3148679 C40.0700377,22.0039245 37.0704906,19.6878491 32.2547925,19.6878491 L24.8163019,19.6878491 L24.8163019,33.0674717 L32.4431698,33.0674717 L32.4419623,33.0686792 Z M20.9207547,15.0581132 L40.96,15.0581132 L40.96,36.6007547 L20.9219623,36.6007547 L20.9207547,15.0581132 Z" id="P" fill="#FFFFFF" fill-rule="nonzero"></path>
                    <path d="M41.8753208,26.4175094 C41.8753208,31.9963774 37.3542642,36.517434 31.7766038,36.517434 C26.1977358,36.517434 21.6766792,31.9963774 21.6766792,26.418717 C21.6766792,20.8398491 26.1989434,16.32 31.7778113,16.32 C37.3566792,16.32 41.8765283,20.8398491 41.8765283,26.418717" id="Shape" fill="#AFB1B4" fill-rule="nonzero"></path>
                    <path d="M25.3584906,26.4188679 C25.3584906,29.7855094 28.0875472,32.5169811 31.4566038,32.5169811 C34.8220377,32.5169811 37.554717,29.7855094 37.554717,26.4188679 C37.554717,23.0522264 34.8220377,20.3207547 31.4566038,20.3207547 C28.0875472,20.3207547 25.3584906,23.0522264 25.3584906,26.4188679" id="Orange-Circle" fill="url(#linearGradient-1)"></path>
                    <path d="M31.0218868,24.2161509 C31.0218868,25.0735094 30.3263396,25.7738868 29.4641509,25.7738868 C28.6067925,25.7738868 27.9064151,25.0735094 27.9064151,24.2161509 C27.9064151,23.3539623 28.6067925,22.6584151 29.4641509,22.6584151 C30.3263396,22.6584151 31.0218868,23.3539623 31.0218868,24.2161509" id="Shape" fill="#FDDBC5" fill-rule="nonzero"></path>
                </g>
            </g>
        </g>
    </g>
</svg>